<?xml version="1.0" encoding="iso-8859-1"?>
<!-- Generator: Adobe Illustrator 16.0.0, SVG Export Plug-In . SVG Version: 6.00 Build 0)  -->
<!DOCTYPE svg PUBLIC "-//W3C//DTD SVG 1.1//EN" "http://www.w3.org/Graphics/SVG/1.1/DTD/svg11.dtd">
<svg version="1.1" id="Capa_1" xmlns="http://www.w3.org/2000/svg" xmlns:xlink="http://www.w3.org/1999/xlink" x="0px" y="0px"
	 width="63.553px" height="63.553px" viewBox="0 0 63.553 63.553" style="enable-background:new 0 0 63.553 63.553;"
	 xml:space="preserve">
<g>
	<path d="M62.97,31.191L32.608,0.827c0,0-0.004,0-0.004-0.002L31.776,0l-0.826,0.824l0,0L0.585,31.191
		c-0.456,0.454-0.456,1.195,0,1.651c0.452,0.454,1.195,0.454,1.651,0l28.372-28.37v57.912c0,0.646,0.527,1.168,1.168,1.168
		c0.644,0,1.168-0.522,1.168-1.168V4.473l28.372,28.37c0.228,0.23,0.526,0.342,0.825,0.342s0.598-0.114,0.828-0.342
		C63.424,32.389,63.424,31.649,62.97,31.191z"/>
</g>
<g>
</g>
<g>
</g>
<g>
</g>
<g>
</g>
<g>
</g>
<g>
</g>
<g>
</g>
<g>
</g>
<g>
</g>
<g>
</g>
<g>
</g>
<g>
</g>
<g>
</g>
<g>
</g>
<g>
</g>
</svg>
