<?xml version="1.0" encoding="iso-8859-1"?>
<!-- Generator: Adobe Illustrator 16.0.0, SVG Export Plug-In . SVG Version: 6.00 Build 0)  -->
<!DOCTYPE svg PUBLIC "-//W3C//DTD SVG 1.1//EN" "http://www.w3.org/Graphics/SVG/1.1/DTD/svg11.dtd">
<svg version="1.1" id="Capa_1" xmlns="http://www.w3.org/2000/svg" xmlns:xlink="http://www.w3.org/1999/xlink" x="0px" y="0px"
	 width="63.553px" height="63.553px" viewBox="0 0 63.553 63.553" style="enable-background:new 0 0 63.553 63.553;"
	 xml:space="preserve">
<g>
	<path d="M62.97,30.708c-0.456-0.457-1.197-0.457-1.651,0L32.943,59.079V1.168C32.943,0.523,32.418,0,31.776,0
		c-0.643,0-1.168,0.523-1.168,1.168v57.911L2.237,30.708c-0.455-0.454-1.196-0.454-1.651,0c-0.455,0.456-0.455,1.197,0,1.651
		l30.365,30.365l0,0l0.827,0.828l0.824-0.823c0,0,0,0,0.003-0.005L62.97,32.359C63.421,31.903,63.421,31.164,62.97,30.708z"/>
</g>
<g>
</g>
<g>
</g>
<g>
</g>
<g>
</g>
<g>
</g>
<g>
</g>
<g>
</g>
<g>
</g>
<g>
</g>
<g>
</g>
<g>
</g>
<g>
</g>
<g>
</g>
<g>
</g>
<g>
</g>
</svg>
